<?xml version="1.0" encoding="UTF-8" standalone="no"?>
<svg
   xmlns:dc="http://purl.org/dc/elements/1.1/"
   xmlns:cc="http://creativecommons.org/ns#"
   xmlns:rdf="http://www.w3.org/1999/02/22-rdf-syntax-ns#"
   xmlns:svg="http://www.w3.org/2000/svg"
   xmlns="http://www.w3.org/2000/svg"
   viewBox="0 0 612.12 627.82666"
   height="627.82666"
   width="612.12"
   xml:space="preserve"
   id="svg2"
   version="1.1"><metadata
     id="metadata8"><rdf:RDF><cc:Work
         rdf:about=""><dc:format>image/svg+xml</dc:format><dc:type
           rdf:resource="http://purl.org/dc/dcmitype/StillImage" /></cc:Work></rdf:RDF></metadata><defs
     id="defs6"><clipPath
       id="clipPath32"
       clipPathUnits="userSpaceOnUse"><path
         id="path30"
         d="m 1066.14,4060.88 v -2216.7 c 0,-158.99 170.55,-288.06 380.88,-288.06 H 3125.4 c 198.69,0 359.76,-161.07 359.76,-359.76 v 0 H 971.301 c -210.336,0 -380.887,129.07 -380.887,288.06 v 2936.22 c 0,159.15 170.551,288.06 380.887,288.06 H 3485.16 v 0 c 0,-198.69 -161.07,-359.76 -359.76,-359.76 H 1447.02 c -210.33,0 -380.88,-128.92 -380.88,-288.06 z" /></clipPath><linearGradient
       id="linearGradient38"
       spreadMethod="pad"
       gradientTransform="matrix(-3948.34,-50.837,-50.837,3948.34,3533.81,2969.36)"
       gradientUnits="userSpaceOnUse"
       y2="0"
       x2="1"
       y1="0"
       x1="0"><stop
         id="stop34"
         offset="0"
         style="stop-opacity:1;stop-color:#382f90" /><stop
         id="stop36"
         offset="1"
         style="stop-opacity:1;stop-color:#ed137b" /></linearGradient><clipPath
       id="clipPath48"
       clipPathUnits="userSpaceOnUse"><path
         id="path46"
         d="m 3270.25,3824.67 v 0 H 1608.38 v 359.76 h 1302.11 c 198.69,0 359.76,-161.07 359.76,-359.76 z" /></clipPath><linearGradient
       id="linearGradient54"
       spreadMethod="pad"
       gradientTransform="matrix(1661.87,0,0,-1661.87,1608.38,4004.55)"
       gradientUnits="userSpaceOnUse"
       y2="0"
       x2="1"
       y1="0"
       x1="0"><stop
         id="stop50"
         offset="0"
         style="stop-opacity:1;stop-color:#312d82" /><stop
         id="stop52"
         offset="1"
         style="stop-opacity:1;stop-color:#607ac6" /></linearGradient><clipPath
       id="clipPath64"
       clipPathUnits="userSpaceOnUse"><path
         id="path62"
         d="m 2079.48,3125.65 v -359.91 h -471.1 c -198.78,0 -359.92,161.14 -359.92,359.91 v 0 z" /></clipPath><linearGradient
       id="linearGradient70"
       spreadMethod="pad"
       gradientTransform="matrix(831.013,0,0,-831.013,1248.46,2945.7)"
       gradientUnits="userSpaceOnUse"
       y2="0"
       x2="1"
       y1="0"
       x1="0"><stop
         id="stop66"
         offset="0"
         style="stop-opacity:1;stop-color:#312d82" /><stop
         id="stop68"
         offset="1"
         style="stop-opacity:1;stop-color:#607ac6" /></linearGradient><clipPath
       id="clipPath80"
       clipPathUnits="userSpaceOnUse"><path
         id="path78"
         d="m 3270.25,2765.74 v 0 h -831.01 v 359.91 h 471.09 c 198.78,0 359.92,-161.13 359.92,-359.91 z" /></clipPath><linearGradient
       id="linearGradient86"
       spreadMethod="pad"
       gradientTransform="matrix(831.013,0,0,-831.013,2439.24,2945.7)"
       gradientUnits="userSpaceOnUse"
       y2="0"
       x2="1"
       y1="0"
       x1="0"><stop
         id="stop82"
         offset="0"
         style="stop-opacity:1;stop-color:#312d82" /><stop
         id="stop84"
         offset="1"
         style="stop-opacity:1;stop-color:#607ac6" /></linearGradient><clipPath
       id="clipPath96"
       clipPathUnits="userSpaceOnUse"><path
         id="path94"
         d="m 1608.38,4184.43 v -359.76 h -359.92 v 0 c 0,198.69 161.07,359.76 359.76,359.76 z" /></clipPath><radialGradient
       id="radialGradient102"
       spreadMethod="pad"
       gradientTransform="matrix(135.858,-115.44,-115.44,-135.858,1433.35,3976.11)"
       gradientUnits="userSpaceOnUse"
       r="1"
       cy="0"
       cx="0"
       fy="0"
       fx="0"><stop
         id="stop98"
         offset="0"
         style="stop-opacity:1;stop-color:#35ac3f" /><stop
         id="stop100"
         offset="1"
         style="stop-opacity:1;stop-color:#1f6634" /></radialGradient><clipPath
       id="clipPath112"
       clipPathUnits="userSpaceOnUse"><path
         id="path110"
         d="m 1608.38,3824.67 v -699.02 h -359.92 v 699.02 z" /></clipPath><linearGradient
       id="linearGradient118"
       spreadMethod="pad"
       gradientTransform="matrix(359.916,0,0,-359.916,1248.46,3475.16)"
       gradientUnits="userSpaceOnUse"
       y2="0"
       x2="1"
       y1="0"
       x1="0"><stop
         id="stop114"
         offset="0"
         style="stop-opacity:1;stop-color:#312d82" /><stop
         id="stop116"
         offset="1"
         style="stop-opacity:1;stop-color:#607ac6" /></linearGradient><clipPath
       id="clipPath128"
       clipPathUnits="userSpaceOnUse"><path
         id="path126"
         d="m 2439.24,3824.67 v -699.02 h -359.76 v 699.02 z" /></clipPath><linearGradient
       id="linearGradient134"
       spreadMethod="pad"
       gradientTransform="matrix(359.762,0,0,-359.762,2079.48,3475.16)"
       gradientUnits="userSpaceOnUse"
       y2="0"
       x2="1"
       y1="0"
       x1="0"><stop
         id="stop130"
         offset="0"
         style="stop-opacity:1;stop-color:#312d82" /><stop
         id="stop132"
         offset="1"
         style="stop-opacity:1;stop-color:#607ac6" /></linearGradient><clipPath
       id="clipPath144"
       clipPathUnits="userSpaceOnUse"><path
         id="path142"
         d="m 2439.24,3125.65 v -359.91 h -359.76 v 359.91 z" /></clipPath><radialGradient
       id="radialGradient150"
       spreadMethod="pad"
       gradientTransform="matrix(179.919,0,0,-179.919,2259.36,2945.7)"
       gradientUnits="userSpaceOnUse"
       r="1"
       cy="0"
       cx="0"
       fy="0"
       fx="0"><stop
         id="stop146"
         offset="0"
         style="stop-opacity:1;stop-color:#35ac3f" /><stop
         id="stop148"
         offset="1"
         style="stop-opacity:1;stop-color:#1f6634" /></radialGradient><clipPath
       id="clipPath160"
       clipPathUnits="userSpaceOnUse"><path
         id="path158"
         d="m 2439.24,2765.74 v -685.29 h -359.76 v 685.29 z" /></clipPath><linearGradient
       id="linearGradient166"
       spreadMethod="pad"
       gradientTransform="matrix(359.762,0,0,-359.762,2079.48,2423.09)"
       gradientUnits="userSpaceOnUse"
       y2="0"
       x2="1"
       y1="0"
       x1="0"><stop
         id="stop162"
         offset="0"
         style="stop-opacity:1;stop-color:#312d82" /><stop
         id="stop164"
         offset="1"
         style="stop-opacity:1;stop-color:#607ac6" /></linearGradient><clipPath
       id="clipPath176"
       clipPathUnits="userSpaceOnUse"><path
         id="path174"
         d="m 3270.25,2765.74 v -685.29 h -359.76 v 685.29 z" /></clipPath><linearGradient
       id="linearGradient182"
       spreadMethod="pad"
       gradientTransform="matrix(359.762,0,0,-359.762,2910.49,2423.09)"
       gradientUnits="userSpaceOnUse"
       y2="0"
       x2="1"
       y1="0"
       x1="0"><stop
         id="stop178"
         offset="0"
         style="stop-opacity:1;stop-color:#312d82" /><stop
         id="stop180"
         offset="1"
         style="stop-opacity:1;stop-color:#607ac6" /></linearGradient><clipPath
       id="clipPath192"
       clipPathUnits="userSpaceOnUse"><path
         id="path190"
         d="m 3270.25,2080.45 v 0 c 0,-198.69 -161.07,-359.76 -359.76,-359.76 v 0 359.76 z" /></clipPath><radialGradient
       id="radialGradient198"
       spreadMethod="pad"
       gradientTransform="matrix(179.881,0,0,-179.881,3090.37,1900.57)"
       gradientUnits="userSpaceOnUse"
       r="1"
       cy="0"
       cx="0"
       fy="0"
       fx="0"><stop
         id="stop194"
         offset="0"
         style="stop-opacity:1;stop-color:#35ac3f" /><stop
         id="stop196"
         offset="1"
         style="stop-opacity:1;stop-color:#1f6634" /></radialGradient><clipPath
       id="clipPath208"
       clipPathUnits="userSpaceOnUse"><path
         id="path206"
         d="M 2910.43,2080.42 V 1720.66 H 1608.17 c -198.62,0 -359.76,161.15 -359.76,359.76 z" /></clipPath><linearGradient
       id="linearGradient214"
       spreadMethod="pad"
       gradientTransform="matrix(1662.03,0,0,-1662.03,1248.41,1900.54)"
       gradientUnits="userSpaceOnUse"
       y2="0"
       x2="1"
       y1="0"
       x1="0"><stop
         id="stop210"
         offset="0"
         style="stop-opacity:1;stop-color:#312d82" /><stop
         id="stop212"
         offset="1"
         style="stop-opacity:1;stop-color:#607ac6" /></linearGradient></defs><g
     transform="matrix(1.3333333,0,0,-1.3333333,0,627.82667)"
     id="g10"><g
       transform="scale(0.1)"
       id="g12"><g
         transform="scale(10)"
         id="g14"><text
           id="text18"
           style="font-variant:normal;font-weight:900;font-size:78.48985291px;font-family:MyriadConceptRoman;-inkscape-font-specification:MyriadConceptRoman-Black;writing-mode:lr-tb;fill:#100f0d;fill-opacity:1;fill-rule:nonzero;stroke:none"
           transform="matrix(1,0,0,-0.91782695,0,53.084)"><tspan
             id="tspan16"
             y="0"
             x="0 46.033371 103.36906 129.27046 174.02942 220.74928 238.29144 284.9144 344.17426 401.88342"></tspan></text>
</g><g
         transform="scale(10)"
         id="g20"><text
           id="text24"
           style="font-variant:normal;font-weight:normal;font-size:46.82102585px;font-family:MicrosoftSansSerif;-inkscape-font-specification:MicrosoftSansSerif;writing-mode:lr-tb;fill:#505256;fill-opacity:1;fill-rule:nonzero;stroke:none"
           transform="matrix(1,0,0,-0.91782695,58.4355,11.0371)"><tspan
             id="tspan22"
             y="0"
             x="0 96.271057 197.73175 299.19244">LABS</tspan></text>
</g><g
         id="g26"><g
           clip-path="url(#clipPath32)"
           id="g28"><path
             id="path40"
             style="fill:url(#linearGradient38);fill-opacity:1;fill-rule:nonzero;stroke:none"
             d="m 1066.14,4060.88 v -2216.7 c 0,-158.99 170.55,-288.06 380.88,-288.06 H 3125.4 c 198.69,0 359.76,-161.07 359.76,-359.76 v 0 H 971.301 c -210.336,0 -380.887,129.07 -380.887,288.06 v 2936.22 c 0,159.15 170.551,288.06 380.887,288.06 H 3485.16 v 0 c 0,-198.69 -161.07,-359.76 -359.76,-359.76 H 1447.02 c -210.33,0 -380.88,-128.92 -380.88,-288.06" /></g></g><g
         id="g42"><g
           clip-path="url(#clipPath48)"
           id="g44"><path
             id="path56"
             style="fill:url(#linearGradient54);fill-opacity:1;fill-rule:nonzero;stroke:none"
             d="m 3270.25,3824.67 v 0 H 1608.38 v 359.76 h 1302.11 c 198.69,0 359.76,-161.07 359.76,-359.76" /></g></g><g
         id="g58"><g
           clip-path="url(#clipPath64)"
           id="g60"><path
             id="path72"
             style="fill:url(#linearGradient70);fill-opacity:1;fill-rule:nonzero;stroke:none"
             d="m 2079.48,3125.65 v -359.91 h -471.1 c -198.78,0 -359.92,161.14 -359.92,359.91 v 0 h 831.02" /></g></g><g
         id="g74"><g
           clip-path="url(#clipPath80)"
           id="g76"><path
             id="path88"
             style="fill:url(#linearGradient86);fill-opacity:1;fill-rule:nonzero;stroke:none"
             d="m 3270.25,2765.74 v 0 h -831.01 v 359.91 h 471.09 c 198.78,0 359.92,-161.13 359.92,-359.91" /></g></g><g
         id="g90"><g
           clip-path="url(#clipPath96)"
           id="g92"><path
             id="path104"
             style="fill:url(#radialGradient102);fill-opacity:1;fill-rule:nonzero;stroke:none"
             d="m 1608.38,4184.43 v -359.76 h -359.92 v 0 c 0,198.69 161.07,359.76 359.76,359.76 h 0.16" /></g></g><g
         id="g106"><g
           clip-path="url(#clipPath112)"
           id="g108"><path
             id="path120"
             style="fill:url(#linearGradient118);fill-opacity:1;fill-rule:nonzero;stroke:none"
             d="m 1608.38,3824.67 v -699.02 h -359.92 v 699.02 h 359.92" /></g></g><g
         id="g122"><g
           clip-path="url(#clipPath128)"
           id="g124"><path
             id="path136"
             style="fill:url(#linearGradient134);fill-opacity:1;fill-rule:nonzero;stroke:none"
             d="m 2439.24,3824.67 v -699.02 h -359.76 v 699.02 h 359.76" /></g></g><g
         id="g138"><g
           clip-path="url(#clipPath144)"
           id="g140"><path
             id="path152"
             style="fill:url(#radialGradient150);fill-opacity:1;fill-rule:nonzero;stroke:none"
             d="m 2439.24,3125.65 v -359.91 h -359.76 v 359.91 h 359.76" /></g></g><g
         id="g154"><g
           clip-path="url(#clipPath160)"
           id="g156"><path
             id="path168"
             style="fill:url(#linearGradient166);fill-opacity:1;fill-rule:nonzero;stroke:none"
             d="m 2439.24,2765.74 v -685.29 h -359.76 v 685.29 h 359.76" /></g></g><g
         id="g170"><g
           clip-path="url(#clipPath176)"
           id="g172"><path
             id="path184"
             style="fill:url(#linearGradient182);fill-opacity:1;fill-rule:nonzero;stroke:none"
             d="m 3270.25,2765.74 v -685.29 h -359.76 v 685.29 h 359.76" /></g></g><g
         id="g186"><g
           clip-path="url(#clipPath192)"
           id="g188"><path
             id="path200"
             style="fill:url(#radialGradient198);fill-opacity:1;fill-rule:nonzero;stroke:none"
             d="m 3270.25,2080.45 v 0 c 0,-198.69 -161.07,-359.76 -359.76,-359.76 v 0 359.76 h 359.76" /></g></g><g
         id="g202"><g
           clip-path="url(#clipPath208)"
           id="g204"><path
             id="path216"
             style="fill:url(#linearGradient214);fill-opacity:1;fill-rule:nonzero;stroke:none"
             d="M 2910.43,2080.42 V 1720.66 H 1608.17 c -198.62,0 -359.76,161.15 -359.76,359.76 h 1662.02" /></g></g></g></g></svg>